<svg width="150" height="30" viewBox="0 0 150 30" fill="none" xmlns="http://www.w3.org/2000/svg">
<g clip-path="url(#clip0_13_345)">
<path d="M0 4.34705V26.3199H11.4061V21.9254H5.18799V19.7204H10.3756V15.3259H5.18799V8.74156H11.4061V4.34705H0ZM19.5042 6.94995C17.7086 6.94995 16.1782 7.48605 14.9128 8.55791C13.6475 9.62976 13.0149 10.9262 13.0149 12.4472V26.3047H18.2029V21.9099H20.7879V26.3047H25.9756V12.4472C25.9756 10.9262 25.343 9.62976 24.0776 8.55791C22.8123 7.48605 21.2877 6.94995 19.5042 6.94995ZM34.3452 6.96539C32.5616 6.9756 31.043 7.51143 29.7897 8.57307C28.5364 9.63472 27.9038 10.921 27.8918 12.4318V14.254C27.9038 15.724 28.5124 16.9899 29.7175 18.0515C30.9226 19.1029 32.3866 19.6592 34.1099 19.7204H34.3631C34.7247 19.7204 35.0321 19.8276 35.2851 20.0419C35.5382 20.2563 35.6644 20.5166 35.6644 20.8229C35.6644 21.1189 35.5382 21.374 35.2851 21.5884C35.0321 21.8028 34.7247 21.9099 34.3631 21.9099H27.8918V26.3047H34.3631C36.1587 26.3047 37.6892 25.7686 38.9545 24.6968C40.2078 23.6249 40.8345 22.3337 40.8345 20.8229C40.8345 19.3427 40.2318 18.0719 39.0267 17.0102C37.8096 15.9486 36.3334 15.3921 34.598 15.3411L34.3631 15.3259C34.0136 15.3259 33.7125 15.2237 33.4594 15.0195C33.2064 14.8051 33.0798 14.5448 33.0798 14.2386V12.4472V12.34V12.2939C33.0918 12.2633 33.0977 12.2429 33.0977 12.2327L33.1157 12.1869L33.134 12.1257L33.152 12.0642L33.1699 12.0184C33.182 11.998 33.2001 11.9724 33.2242 11.9418C33.2362 11.9213 33.2362 11.9164 33.2242 11.9266C33.2362 11.9062 33.2543 11.8806 33.2784 11.8499H33.2967V11.8348C33.3088 11.8143 33.3269 11.7887 33.351 11.7581H33.3689C33.393 11.7275 33.417 11.7018 33.4411 11.6814H33.4594C33.4835 11.6508 33.5134 11.6255 33.5496 11.6051C33.7786 11.4417 34.0498 11.3599 34.3631 11.3599C34.7247 11.3599 35.0321 11.4671 35.2851 11.6814C35.5382 11.8958 35.6645 12.1512 35.6645 12.4472V14.698H40.8345V12.4472C40.8345 10.967 40.2318 9.69593 39.0267 8.63429C37.8096 7.57264 36.3334 7.01643 34.598 6.96539L34.3452 6.96539ZM42.4253 7.42481V14.2386C42.4253 15.3512 42.7929 16.3722 43.528 17.3012C44.239 18.1995 45.1849 18.8579 46.3658 19.2764V26.3047H51.5355V19.2458C52.6924 18.8069 53.6143 18.1432 54.3012 17.2551C55.0122 16.3466 55.368 15.341 55.368 14.2386V7.42481H50.1979V14.2386C50.1979 14.5448 50.0714 14.8051 49.8183 15.0195C49.5652 15.2339 49.2582 15.3411 48.8966 15.3411C48.5471 15.3411 48.2456 15.2339 47.9926 15.0195C47.7395 14.8051 47.6129 14.5448 47.6129 14.2386V7.42481H42.4253ZM19.5042 11.3447C19.8537 11.3447 20.1552 11.4519 20.4083 11.6663C20.6613 11.8806 20.7879 12.141 20.7879 12.4472V17.5154H18.2029V12.4472C18.2029 12.141 18.3295 11.8806 18.5825 11.6663C18.8356 11.4519 19.1427 11.3447 19.5042 11.3447Z" fill="#191A1A"/>
<path d="M81.1033 0C73.7659 -5.41161e-07 66.074 3.58165 63.9227 7.99992L54.7691 26.8001C54.3559 27.6487 54.5195 28.4626 55.2238 29.0627C55.9282 29.6628 57.1156 29.9999 58.5249 30H122.973C130.743 30 138.889 26.2069 141.167 21.528L149.724 3.95279C150.234 2.90446 150.032 1.89908 149.162 1.15779C148.292 0.416507 146.825 3.82227e-05 145.084 0H81.1033ZM71.1574 5.86908H83.3907V9.89769H79.683V25.984H74.7967V9.89769H71.1574V5.86908ZM90.0539 8.24115C91.7396 8.24115 93.1805 8.73257 94.3765 9.71516C95.5724 10.6977 96.1703 11.8861 96.1703 13.2804V25.984H91.2671V21.9554H88.8237V25.984H83.9201V13.2804C83.9201 11.8861 84.5184 10.6977 85.7143 9.71516C86.9103 8.73257 88.3567 8.24115 90.0539 8.24115ZM104.081 8.25518H104.32C105.96 8.30197 107.355 8.81213 108.506 9.78536C109.645 10.7586 110.215 11.9235 110.215 13.2804V15.3439H105.328V13.2804C105.328 13.009 105.209 12.7752 104.969 12.5787C104.73 12.3821 104.44 12.2838 104.098 12.2838C103.802 12.2838 103.546 12.3587 103.329 12.5084C103.295 12.5272 103.266 12.5506 103.244 12.5787H103.227C103.204 12.5974 103.181 12.6208 103.158 12.6489H103.141C103.119 12.6769 103.102 12.7003 103.09 12.7191V12.7331H103.073C103.05 12.7612 103.033 12.7846 103.022 12.8033C103.033 12.794 103.033 12.7987 103.022 12.8173C102.999 12.8454 102.982 12.8688 102.97 12.8876L102.953 12.9297L102.936 12.9858L102.919 13.0417L102.902 13.0838C102.902 13.0932 102.897 13.1119 102.885 13.14V13.1821V13.2804V14.9229C102.885 15.2037 103.005 15.4422 103.244 15.6387C103.483 15.8259 103.768 15.9195 104.098 15.9195L104.32 15.9336C105.961 15.9804 107.356 16.4903 108.506 17.4635C109.645 18.4367 110.215 19.6019 110.215 20.9588C110.215 22.3438 109.622 23.5274 108.438 24.51C107.242 25.4926 105.795 25.984 104.098 25.984H97.9815V21.9554H104.098C104.44 21.9554 104.73 21.8571 104.969 21.6606C105.209 21.4641 105.328 21.2302 105.328 20.9588C105.328 20.6781 105.209 20.4392 104.969 20.2427C104.73 20.0462 104.44 19.9482 104.098 19.9482H103.859C102.23 19.892 100.846 19.3818 99.7072 18.418C98.5682 17.4447 97.9929 16.2845 97.9815 14.937V13.2664C97.9929 11.8814 98.5908 10.7024 99.7754 9.72921C100.96 8.75598 102.395 8.26454 104.081 8.25518ZM111.496 8.66237H116.4V15.9195H117.1C117.442 15.9195 117.749 15.8212 118.023 15.6247C118.296 15.4282 118.455 15.1943 118.501 14.9229L120.056 8.66237H124.959L123.404 14.937C123.222 15.9757 122.698 16.9208 121.833 17.7724C122.903 18.6988 123.541 19.7563 123.746 20.9448L123.763 21.043L124.618 25.9981H119.714L118.877 21.1411L118.843 20.9588C118.797 20.6781 118.638 20.4392 118.364 20.2427C118.091 20.0462 117.789 19.9481 117.459 19.9481H116.4V25.9981H111.496L111.496 8.66237ZM90.0539 12.2698C89.7122 12.2698 89.4216 12.3681 89.1824 12.5646C88.9432 12.7611 88.8237 12.9997 88.8237 13.2804V17.9268H91.2671V13.2804C91.2671 12.9997 91.1473 12.7611 90.9081 12.5646C90.6689 12.3681 90.3842 12.2698 90.0539 12.2698ZM130.998 16.5533C131.786 16.5536 132.564 16.702 133.272 16.9873C133.98 17.2727 134.6 17.6874 135.085 18.2001L134.172 18.7493C134.171 18.7487 134.171 18.7542 134.174 18.7614C133.795 18.3649 133.314 18.0447 132.766 17.8246C132.218 17.6045 131.618 17.4902 131.009 17.4901C130.478 17.4901 129.952 17.5772 129.462 17.7464C128.971 17.9156 128.525 18.1637 128.15 18.4764C127.774 18.7891 127.476 19.1604 127.273 19.5689C127.07 19.9775 126.965 20.4155 126.965 20.8577C126.965 21.3 127.07 21.7379 127.273 22.1465C127.476 22.5551 127.774 22.9263 128.15 23.239C128.525 23.5517 128.971 23.7998 129.462 23.969C129.952 24.1382 130.478 24.2253 131.009 24.2253C132.07 24.2243 133.087 23.8765 133.842 23.2569C134.598 22.6372 135.031 21.7953 135.048 20.9125L136.112 20.2062C136.112 20.2062 136.114 20.1777 136.116 20.1486C136.161 20.3743 136.183 20.6026 136.184 20.8313C136.184 21.9659 135.637 23.054 134.665 23.8563C133.692 24.6586 132.374 25.1093 130.998 25.1093C129.623 25.1093 128.304 24.6586 127.332 23.8563C126.359 23.054 125.813 21.9659 125.813 20.8313C125.813 19.6967 126.359 18.6086 127.332 17.8063C128.304 17.0041 129.623 16.5533 130.998 16.5533ZM138.099 17.3885C138.253 17.3948 138.705 17.7162 138.675 18.0029C138.631 18.4185 137.504 18.7909 137.504 18.7909L136.37 19.3727L135.703 19.7479L134.654 20.4606L133.011 21.6437C133.011 21.6437 132.695 21.9146 132.32 22.2548C132.017 22.5297 131.682 22.8592 131.387 23.0559C131.189 23.1879 130.955 23.1996 130.862 23.214C130.673 23.2433 129.914 22.216 129.67 22.0116C129.491 21.8612 128.509 20.8854 128.529 20.6811C128.534 20.6351 128.571 20.3868 128.77 20.2419C129.001 20.0733 129.189 20.0853 129.328 20.1242C130.002 20.3131 131.062 21.715 131.062 21.715L133.223 19.974C133.223 19.974 134.764 18.862 135.623 18.4093C136.401 17.9997 137.701 17.3722 138.099 17.3885Z" fill="#155552" fill-opacity="0.8"/>
</g>
<defs>
<clipPath id="clip0_13_345">
<rect width="150" height="30" fill="white"/>
</clipPath>
</defs>
</svg>
