<svg width="167" height="32" viewBox="0 0 167 32" fill="none" xmlns="http://www.w3.org/2000/svg">
<g clip-path="url(#clip0_2_18)">
<path d="M1.52588e-05 4.63686V28.0746H12.6988V23.3871H5.77598V21.0351H11.5516V16.3476H5.77598V9.32434H12.6988V4.63686H1.52588e-05ZM21.7147 7.41328C19.7156 7.41328 18.0117 7.98513 16.6029 9.12844C15.1942 10.2717 14.4899 11.6546 14.4899 13.277V28.0584H20.2659V23.3706H23.1439V28.0584H28.9195V13.277C28.9195 11.6546 28.2152 10.2717 26.8065 9.12844C25.3977 7.98513 23.7004 7.41328 21.7147 7.41328ZM38.2376 7.42976C36.252 7.44065 34.5612 8.0122 33.1659 9.14461C31.7705 10.277 31.0663 11.6491 31.0529 13.2606V15.2043C31.0663 16.7722 31.7438 18.1225 33.0855 19.2549C34.4272 20.3765 36.0571 20.9698 37.9757 21.0351H38.2576C38.6601 21.0351 39.0024 21.1494 39.2841 21.3781C39.5659 21.6067 39.7064 21.8844 39.7064 22.2111C39.7064 22.5269 39.5659 22.799 39.2841 23.0276C39.0024 23.2563 38.6601 23.3706 38.2576 23.3706H31.0529V28.0584H38.2576C40.2567 28.0584 41.9606 27.4865 43.3694 26.3432C44.7647 25.1999 45.4624 23.8226 45.4624 22.2111C45.4624 20.6322 44.7914 19.2767 43.4498 18.1442C42.0947 17.0118 40.4512 16.4182 38.5192 16.3638L38.2576 16.3476C37.8685 16.3476 37.5333 16.2386 37.2515 16.0208C36.9698 15.7922 36.8288 15.5145 36.8288 15.1878V13.277V13.1626V13.1135C36.8422 13.0808 36.8488 13.0591 36.8488 13.0482L36.8688 12.9994L36.8892 12.9341L36.9092 12.8685L36.9292 12.8197C36.9426 12.7979 36.9628 12.7705 36.9896 12.7379C37.003 12.7161 37.003 12.7108 36.9896 12.7217C37.003 12.6999 37.0231 12.6726 37.05 12.6399H37.0704V12.6237C37.0838 12.602 37.1039 12.5746 37.1307 12.542H37.1507C37.1776 12.5093 37.2043 12.482 37.2311 12.4602H37.2515C37.2783 12.4275 37.3117 12.4005 37.3519 12.3787C37.6068 12.2045 37.9088 12.1172 38.2576 12.1172C38.6601 12.1172 39.0024 12.2315 39.2841 12.4602C39.5659 12.6889 39.7064 12.9613 39.7064 13.277V15.6778H45.4624V13.277C45.4624 11.6982 44.7915 10.3423 43.4498 9.20991C42.0947 8.07749 40.4512 7.48419 38.5192 7.42975L38.2376 7.42976ZM47.2335 7.9198V15.1878C47.2335 16.3747 47.6427 17.4637 48.4611 18.4546C49.2527 19.4128 50.3058 20.1151 51.6207 20.5615V28.0584H57.3762V20.5289C58.6642 20.0607 59.6906 19.3528 60.4554 18.4054C61.247 17.4364 61.643 16.3638 61.643 15.1878V7.9198H55.8871V15.1878C55.8871 15.5145 55.7461 15.7922 55.4644 16.0208C55.1826 16.2495 54.8408 16.3638 54.4383 16.3638C54.0492 16.3638 53.7135 16.2495 53.4318 16.0208C53.15 15.7922 53.0091 15.5145 53.0091 15.1878V7.9198H47.2335ZM21.7147 12.1011C22.1038 12.1011 22.4395 12.2154 22.7212 12.444C23.003 12.6727 23.1439 12.9504 23.1439 13.277V18.6831H20.2659V13.277C20.2659 12.9504 20.4068 12.6727 20.6886 12.444C20.9703 12.2154 21.3122 12.1011 21.7147 12.1011Z" fill="#273E4E"/>
<path d="M90.2949 0C82.126 -5.77238e-07 73.5623 3.82042 71.1672 8.53325L60.9762 28.5868C60.5162 29.492 60.6983 30.3601 61.4825 31.0002C62.2666 31.6403 63.5886 31.9999 65.1577 32H136.909C145.56 32 154.629 27.9541 157.166 22.9632L166.692 4.2163C167.261 3.0981 167.036 2.02568 166.067 1.23498C165.098 0.444274 163.465 4.07709e-05 161.527 0H90.2949ZM79.2219 6.26035H92.8415V10.5575H88.7136V27.7163H83.2736V10.5575H79.2219V6.26035ZM100.26 8.79056C102.137 8.79056 103.741 9.31474 105.072 10.3628C106.404 11.4109 107.07 12.6785 107.07 14.1658V27.7163H101.611V23.4191H98.8904V27.7163H93.431V14.1658C93.431 12.6785 94.097 11.4109 95.4286 10.3628C96.7601 9.31474 98.3704 8.79056 100.26 8.79056ZM115.877 8.80553H116.143C117.969 8.85544 119.522 9.39961 120.803 10.4377C122.071 11.4758 122.706 12.7184 122.706 14.1658V16.3668H117.265V14.1658C117.265 13.8763 117.132 13.6268 116.866 13.4172C116.6 13.2076 116.276 13.1027 115.896 13.1027C115.566 13.1027 115.281 13.1826 115.04 13.3423C115.002 13.3623 114.97 13.3873 114.945 13.4172H114.926C114.9 13.4372 114.875 13.4622 114.849 13.4921H114.831C114.805 13.5221 114.786 13.547 114.774 13.567V13.582H114.754C114.729 13.6119 114.71 13.6369 114.697 13.6569C114.71 13.6469 114.71 13.6519 114.697 13.6718C114.672 13.7018 114.653 13.7268 114.64 13.7467L114.621 13.7917L114.602 13.8516L114.583 13.9112L114.564 13.9561C114.564 13.9661 114.558 13.9861 114.545 14.016V14.0609V14.1658V15.9178C114.545 16.2172 114.678 16.4717 114.945 16.6813C115.211 16.8809 115.528 16.9808 115.896 16.9808L116.143 16.9958C117.969 17.0457 119.522 17.5896 120.803 18.6277C122.071 19.6658 122.706 20.9087 122.706 22.3561C122.706 23.8334 122.046 25.0959 120.727 26.144C119.396 27.1921 117.785 27.7163 115.896 27.7163H109.086V23.4191H115.896C116.276 23.4191 116.6 23.3142 116.866 23.1046C117.132 22.895 117.265 22.6455 117.265 22.3561C117.265 22.0566 117.132 21.8019 116.866 21.5922C116.6 21.3826 116.276 21.278 115.896 21.278H115.63C113.816 21.2181 112.275 20.674 111.007 19.6458C109.739 18.6077 109.099 17.3701 109.086 15.9328V14.1508C109.099 12.6735 109.764 11.4159 111.083 10.3778C112.402 9.33971 114 8.81551 115.877 8.80553ZM124.132 9.23986H129.591V16.9808H130.371C130.752 16.9808 131.094 16.8759 131.398 16.6663C131.703 16.4567 131.88 16.2072 131.931 15.9178L133.662 9.23986H139.121L137.39 15.9328C137.187 17.0407 136.604 18.0488 135.64 18.9572C136.832 19.9454 137.542 21.0734 137.771 22.3411L137.79 22.4459L138.741 27.7313H133.282L132.349 22.5505L132.311 22.3561C132.261 22.0566 132.083 21.8018 131.779 21.5922C131.474 21.3826 131.139 21.278 130.771 21.278H129.591V27.7313H124.132L124.132 9.23986ZM100.26 13.0877C99.8795 13.0877 99.5559 13.1926 99.2896 13.4023C99.0233 13.6119 98.8904 13.8663 98.8904 14.1658V19.1219H101.611V14.1658C101.611 13.8663 101.477 13.6119 101.211 13.4023C100.945 13.1926 100.628 13.0877 100.26 13.0877ZM145.845 17.6569C146.722 17.6571 147.588 17.8154 148.376 18.1198C149.164 18.4242 149.855 18.8666 150.394 19.4134L149.378 19.9993C149.377 19.9986 149.377 20.0045 149.38 20.0122C148.958 19.5893 148.423 19.2477 147.813 19.0129C147.203 18.7782 146.534 18.6562 145.857 18.6562C145.266 18.6561 144.68 18.749 144.134 18.9295C143.588 19.11 143.091 19.3746 142.673 19.7082C142.255 20.0417 141.924 20.4377 141.697 20.8735C141.471 21.3094 141.355 21.7765 141.355 22.2482C141.355 22.72 141.471 23.1871 141.697 23.6229C141.924 24.0587 142.255 24.4547 142.673 24.7883C143.091 25.1218 143.588 25.3864 144.134 25.5669C144.68 25.7474 145.266 25.8403 145.857 25.8403C147.037 25.8392 148.17 25.4683 149.011 24.8073C149.852 24.1464 150.334 23.2484 150.353 22.3066L151.537 21.5533C151.537 21.5533 151.54 21.5229 151.543 21.4919C151.592 21.7326 151.617 21.9761 151.618 22.2201C151.618 23.4303 151.009 24.591 149.927 25.4467C148.844 26.3025 147.376 26.7832 145.845 26.7832C144.314 26.7832 142.845 26.3025 141.763 25.4467C140.68 24.591 140.072 23.4303 140.072 22.2201C140.072 21.0098 140.68 19.8492 141.763 18.9934C142.845 18.1377 144.313 17.6569 145.845 17.6569ZM153.75 18.5477C153.922 18.5545 154.425 18.8973 154.391 19.2031C154.342 19.6464 153.088 20.0436 153.088 20.0436L151.825 20.6643L151.082 21.0644L149.915 21.8247L148.085 23.0866C148.085 23.0866 147.734 23.3755 147.316 23.7384C146.979 24.0317 146.606 24.3832 146.277 24.593C146.057 24.7337 145.797 24.7462 145.693 24.7616C145.483 24.7928 144.638 23.6971 144.366 23.479C144.166 23.3186 143.074 22.2778 143.096 22.0598C143.101 22.0107 143.142 21.7459 143.364 21.5913C143.621 21.4115 143.831 21.4243 143.986 21.4658C144.736 21.6673 145.916 23.1627 145.916 23.1627L148.321 21.3056C148.321 21.3056 150.037 20.1195 150.994 19.6365C151.86 19.1997 153.308 18.5303 153.75 18.5477Z" fill="#689DAA"/>
</g>
<defs>
<clipPath id="clip0_2_18">
<rect width="167" height="32" fill="white"/>
</clipPath>
</defs>
</svg>
