<svg width="250" height="200" viewBox="0 0 250 200" fill="none" xmlns="http://www.w3.org/2000/svg">
<g clip-path="url(#clip0_10_2)">
<path d="M243.607 0H6.39345C2.86245 0 1.52588e-05 2.86244 1.52588e-05 6.39344V193.607C1.52588e-05 197.138 2.86245 200 6.39345 200H243.607C247.138 200 250 197.138 250 193.607V6.39344C250 2.86244 247.138 0 243.607 0Z" fill="url(#paint0_linear_10_2)"/>
<path d="M238.607 32.3606H176.393C172.862 32.3606 170 35.223 170 38.754V118.818C170 122.349 172.862 125.212 176.393 125.212H238.607C242.138 125.212 245 122.349 245 118.818V38.754C245 35.223 242.138 32.3606 238.607 32.3606Z" fill="#FFF9F9" fill-opacity="0.556231"/>
<path d="M205.471 38.2725H179.389C178.237 38.2725 177.303 39.2066 177.303 40.359C177.303 41.5114 178.237 42.4455 179.389 42.4455H205.471C206.624 42.4455 207.558 41.5114 207.558 40.359C207.558 39.2066 206.624 38.2725 205.471 38.2725Z" fill="#FFF9F9" fill-opacity="0.556231"/>
<path d="M222.164 49.7485H176.607C175.455 49.7485 174.521 50.6827 174.521 51.8351V84.5243C174.521 85.6766 175.455 86.6108 176.607 86.6108H222.164C223.316 86.6108 224.25 85.6766 224.25 84.5243V51.8351C224.25 50.6827 223.316 49.7485 222.164 49.7485Z" fill="#FFF9F9" fill-opacity="0.556231"/>
<path d="M203.559 80.0034H180.607C179.742 80.0034 179.042 80.704 179.042 81.5683C179.042 82.4326 179.742 83.1332 180.607 83.1332H203.559C204.423 83.1332 205.123 82.4326 205.123 81.5683C205.123 80.704 204.423 80.0034 203.559 80.0034Z" fill="#FFF9F9" fill-opacity="0.556231"/>
<path d="M221.99 94.9569H177.477C176.612 94.9569 175.912 95.6575 175.912 96.5218V107.65C175.912 108.514 176.612 109.215 177.477 109.215H221.99C222.854 109.215 223.555 108.514 223.555 107.65V96.5218C223.555 95.6575 222.854 94.9569 221.99 94.9569Z" fill="#FFF9F9" fill-opacity="0.556231"/>
<path d="M206.341 102.26H183.041C182.177 102.26 181.476 102.96 181.476 103.825V104.172C181.476 105.037 182.177 105.737 183.041 105.737H206.341C207.205 105.737 207.906 105.037 207.906 104.172V103.825C207.906 102.96 207.205 102.26 206.341 102.26Z" fill="#FFF9F9" fill-opacity="0.556231"/>
<path d="M156.107 32.3606H93.8934C90.3624 32.3606 87.5 35.223 87.5 38.754V90.3934C87.5 93.9244 90.3624 96.7868 93.8934 96.7868H156.107C159.638 96.7868 162.5 93.9244 162.5 90.3934V38.754C162.5 35.223 159.638 32.3606 156.107 32.3606Z" fill="#FFF9F9" fill-opacity="0.556231"/>
<path d="M127.132 38.4752H94.4425C93.0981 38.4752 92.0082 39.5651 92.0082 40.9095C92.0082 42.2539 93.0981 43.3438 94.4425 43.3438H127.132C128.476 43.3438 129.566 42.2539 129.566 40.9095C129.566 39.5651 128.476 38.4752 127.132 38.4752Z" fill="#FFF9F9" fill-opacity="0.556231"/>
<path d="M152.17 49.2557H94.4425C93.0981 49.2557 92.0082 50.3456 92.0082 51.69V63.8616C92.0082 65.206 93.0981 66.2958 94.4425 66.2958H152.17C153.515 66.2958 154.605 65.206 154.605 63.8616V51.69C154.605 50.3456 153.515 49.2557 152.17 49.2557Z" fill="#FFF9F9" fill-opacity="0.556231"/>
<path d="M126.046 55.863H99.2686C98.0202 55.863 97.0082 56.8751 97.0082 58.1235C97.0082 59.3718 98.0202 60.3839 99.2686 60.3839H126.046C127.294 60.3839 128.306 59.3718 128.306 58.1235C128.306 56.8751 127.294 55.863 126.046 55.863Z" fill="#FFF9F9" fill-opacity="0.556231"/>
<path d="M154.431 72.2078H94.2686C93.0202 72.2078 92.0082 73.2198 92.0082 74.4682V90.1173C92.0082 91.3657 93.0202 92.3777 94.2686 92.3777H154.431C155.679 92.3777 156.691 91.3657 156.691 90.1173V74.4682C156.691 73.2198 155.679 72.2078 154.431 72.2078Z" fill="#FFF9F9" fill-opacity="0.556231"/>
<path d="M140.304 75.6853H99.2686C98.0202 75.6853 97.0082 76.6973 97.0082 77.9457C97.0082 79.1941 98.0202 80.2062 99.2686 80.2062H140.304C141.552 80.2062 142.564 79.1941 142.564 77.9457C142.564 76.6973 141.552 75.6853 140.304 75.6853Z" fill="#FFF9F9" fill-opacity="0.556231"/>
<path d="M119.091 84.3793H98.9209C97.8645 84.3793 97.0082 85.2356 97.0082 86.2919C97.0082 87.3483 97.8645 88.2046 98.9209 88.2046H119.091C120.147 88.2046 121.003 87.3483 121.003 86.2919C121.003 85.2356 120.147 84.3793 119.091 84.3793Z" fill="#FFF9F9" fill-opacity="0.556231"/>
<path d="M143.725 81.9449H138.673C137.283 81.9449 136.157 83.0717 136.157 84.4616V88.1222C136.157 89.5121 137.283 90.6389 138.673 90.6389H143.725C145.115 90.6389 146.242 89.5121 146.242 88.1222V84.4616C146.242 83.0717 145.115 81.9449 143.725 81.9449Z" fill="#3AF9F9" fill-opacity="0.556231"/>
<path d="M36.4721 12.7412H8.99923C6.79052 12.7412 5.00002 14.5317 5.00002 16.7404C5.00002 18.9491 6.79052 20.7396 8.99923 20.7396H36.4721C38.6808 20.7396 40.4713 18.9491 40.4713 16.7404C40.4713 14.5317 38.6808 12.7412 36.4721 12.7412Z" fill="#FFF9F9" fill-opacity="0.556231"/>
<path d="M73.8525 32.459H11.3935C7.86245 32.459 5.00002 35.3214 5.00002 38.8524V154.426C5.00002 157.957 7.86245 160.82 11.3935 160.82H73.8525C77.3835 160.82 80.2459 157.957 80.2459 154.426V38.8524C80.2459 35.3214 77.3835 32.459 73.8525 32.459Z" fill="#F1F9F9" fill-opacity="0.550152"/>
<path d="M33.1148 39.8359H14.918C12.2019 39.8359 10 42.0378 10 44.754C10 47.4701 12.2019 49.672 14.918 49.672H33.1148C35.8309 49.672 38.0328 47.4701 38.0328 44.754C38.0328 42.0378 35.8309 39.8359 33.1148 39.8359Z" fill="#F1F9F9" fill-opacity="0.550152"/>
<path d="M64.5902 56.0654H14.918C12.2019 56.0654 10 58.2673 10 60.9835V73.2786C10 75.9947 12.2019 78.1966 14.918 78.1966H64.5902C67.3063 78.1966 69.5082 75.9947 69.5082 73.2786V60.9835C69.5082 58.2673 67.3063 56.0654 64.5902 56.0654Z" fill="#F1F9F9" fill-opacity="0.550152"/>
<path d="M51.1476 63.4426H17.2131C15.9909 63.4426 15 64.4335 15 65.6558C15 66.878 15.9909 67.8688 17.2131 67.8688H51.1476C52.3698 67.8688 53.3607 66.878 53.3607 65.6558C53.3607 64.4335 52.3698 63.4426 51.1476 63.4426Z" fill="#F1F9F9" fill-opacity="0.550152"/>
<path d="M67.7869 86.5573H12.2131C10.9909 86.5573 10 87.5481 10 88.7704V110.902C10 112.124 10.9909 113.115 12.2131 113.115H67.7869C69.0092 113.115 70 112.124 70 110.902V88.7704C70 87.5481 69.0092 86.5573 67.7869 86.5573Z" fill="#F1F9F9" fill-opacity="0.550152"/>
<path d="M63.2883 93.3606H57.3866C56.1644 93.3606 55.1735 94.3515 55.1735 95.5737V100.984C55.1735 102.206 56.1644 103.197 57.3866 103.197H63.2883C64.5105 103.197 65.5014 102.206 65.5014 100.984V95.5737C65.5014 94.3515 64.5105 93.3606 63.2883 93.3606Z" fill="#6CF996" fill-opacity="0.550152"/>
<path d="M30.9836 96.8853H17.2131C15.9909 96.8853 15 97.8761 15 99.0984C15 100.321 15.9909 101.311 17.2131 101.311H30.9836C32.2059 101.311 33.1968 100.321 33.1968 99.0984C33.1968 97.8761 32.2059 96.8853 30.9836 96.8853Z" fill="#F1F9F9" fill-opacity="0.550152"/>
<path d="M48.1148 93.3606H42.2132C40.9909 93.3606 40 94.3515 40 95.5737V100.984C40 102.206 40.9909 103.197 42.2132 103.197H48.1148C49.337 103.197 50.3279 102.206 50.3279 100.984V95.5737C50.3279 94.3515 49.337 93.3606 48.1148 93.3606Z" fill="#4FF9F9" fill-opacity="0.550152"/>
<path d="M69.2623 118.525H12.2131C10.9909 118.525 10 119.515 10 120.738V152.213C10 153.435 10.9909 154.426 12.2131 154.426H69.2623C70.4846 154.426 71.4754 153.435 71.4754 152.213V120.738C71.4754 119.515 70.4846 118.525 69.2623 118.525Z" fill="#F1F9F9" fill-opacity="0.550152"/>
<path d="M48.1968 141.147H17.2131C15.9909 141.147 15 142.138 15 143.361C15 144.583 15.9909 145.574 17.2131 145.574H48.1968C49.419 145.574 50.4099 144.583 50.4099 143.361C50.4099 142.138 49.419 141.147 48.1968 141.147Z" fill="#F1F9F9" fill-opacity="0.975684"/>
</g>
<defs>
<linearGradient id="paint0_linear_10_2" x1="130.82" y1="202.295" x2="130" y2="1.14753" gradientUnits="userSpaceOnUse">
<stop stop-color="#689DAA"/>
<stop offset="1" stop-color="#273E4E"/>
</linearGradient>
<clipPath id="clip0_10_2">
<rect width="250" height="200" fill="white"/>
</clipPath>
</defs>
</svg>
