<svg width="167" height="33" viewBox="0 0 167 33" fill="none" xmlns="http://www.w3.org/2000/svg">
<g clip-path="url(#clip0_88_41)">
<mask id="mask0_88_41" style="mask-type:luminance" maskUnits="userSpaceOnUse" x="0" y="0" width="167" height="33">
<path d="M167 0.5H0V32.5H167V0.5Z" fill="white"/>
</mask>
<g mask="url(#mask0_88_41)">
<path d="M0 5.13684V28.5745H12.6988V23.8871H5.77596V21.5351H11.5516V16.8476H5.77596V9.82433H12.6988V5.13684H0ZM21.7147 7.91323C19.7156 7.91323 18.0117 8.48514 16.6029 9.62843C15.1942 10.7717 14.4899 12.1546 14.4899 13.777V28.5584H20.2659V23.8706H23.1439V28.5584H28.9195V13.777C28.9195 12.1546 28.2152 10.7717 26.8064 9.62843C25.3977 8.48514 23.7004 7.91323 21.7147 7.91323ZM38.2376 7.92974C36.2519 7.94062 34.5612 8.51221 33.1659 9.64462C31.7705 10.777 31.0663 12.149 31.0528 13.7605V15.7043C31.0663 17.2722 31.7438 18.6225 33.0855 19.7549C34.4271 20.8764 36.0571 21.4698 37.9757 21.5351H38.2576C38.6601 21.5351 39.0023 21.6494 39.2841 21.878C39.5659 22.1067 39.7064 22.3844 39.7064 22.7111C39.7064 23.0268 39.5659 23.299 39.2841 23.5276C39.0023 23.7562 38.6601 23.8706 38.2576 23.8706H31.0528V28.5584H38.2576C40.2567 28.5584 41.9606 27.9865 43.3694 26.8432C44.7647 25.6999 45.4624 24.3226 45.4624 22.7111C45.4624 21.1322 44.7914 19.7767 43.4497 18.6442C42.0947 17.5118 40.4512 16.9182 38.5191 16.8638L38.2576 16.8476C37.8685 16.8476 37.5332 16.7386 37.2515 16.5208C36.9697 16.2921 36.8288 16.0144 36.8288 15.6878V13.777V13.6626V13.6135C36.8422 13.5808 36.8488 13.5591 36.8488 13.5482L36.8688 13.4993L36.8892 13.4341L36.9092 13.3685L36.9292 13.3196C36.9427 13.2979 36.9628 13.2705 36.9896 13.2378C37.003 13.2161 37.003 13.2108 36.9896 13.2217C37.003 13.1999 37.0231 13.1726 37.05 13.1399H37.0703V13.1237C37.0838 13.102 37.1039 13.0746 37.1307 13.0419H37.1507C37.1775 13.0093 37.2043 12.982 37.2311 12.9602H37.2515C37.2783 12.9275 37.3116 12.9005 37.3519 12.8787C37.6068 12.7045 37.9088 12.6172 38.2576 12.6172C38.6601 12.6172 39.0023 12.7315 39.2842 12.9602C39.5659 13.1888 39.7064 13.4613 39.7064 13.777V16.1778H45.4624V13.777C45.4624 12.1982 44.7914 10.8423 43.4498 9.7099C42.0947 8.57749 40.4512 7.98421 38.5191 7.92974H38.2376ZM47.2334 8.41979V15.6878C47.2334 16.8746 47.6427 17.9637 48.4611 18.9546C49.2527 19.9128 50.3058 20.6151 51.6206 21.0615V28.5584H57.3762V21.0289C58.6643 20.5607 59.6906 19.8528 60.4553 18.9054C61.2469 17.9363 61.643 16.8638 61.643 15.6878V8.41979H55.8871V15.6878C55.8871 16.0144 55.7461 16.2921 55.4644 16.5208C55.1826 16.7495 54.8407 16.8638 54.4382 16.8638C54.0491 16.8638 53.7135 16.7495 53.4317 16.5208C53.15 16.2921 53.0091 16.0144 53.0091 15.6878V8.41979H47.2334ZM21.7147 12.601C22.1038 12.601 22.4395 12.7153 22.7212 12.944C23.0029 13.1727 23.1439 13.4504 23.1439 13.777V19.1831H20.2659V13.777C20.2659 13.4504 20.4068 13.1727 20.6885 12.944C20.9703 12.7153 21.3122 12.601 21.7147 12.601Z" fill="#F1F9F9"/>
<path d="M90.2952 0.5C82.1259 0.499999 73.5622 4.32042 71.1671 9.03325L60.9761 29.0868C60.5161 29.992 60.6982 30.8601 61.4824 31.5002C62.2665 32.1403 63.5885 32.4999 65.1576 32.5H136.909C145.56 32.5 154.629 28.454 157.165 23.4632L166.693 4.71631C167.26 3.59809 167.036 2.52568 166.067 1.73498C165.099 0.944275 163.465 0.500041 161.527 0.5H90.2952ZM79.2218 6.76035H92.8411V11.0575H88.7137V28.2163H83.2735V11.0575H79.2218V6.76035ZM100.26 9.29053C102.136 9.29053 103.741 9.81475 105.072 10.8628C106.404 11.9109 107.069 13.1785 107.069 14.6658V28.2163H101.61V23.9191H98.8906V28.2163H93.4306V14.6658C93.4306 13.1785 94.0969 11.9109 95.4287 10.8628C96.7597 9.81475 98.3704 9.29053 100.26 9.29053ZM115.876 9.3055H116.143C117.97 9.35542 119.523 9.89962 120.803 10.9377C122.071 11.9758 122.706 13.2184 122.706 14.6658V16.8668H117.265V14.6658C117.265 14.3763 117.132 14.1268 116.866 13.9172C116.599 13.7076 116.276 13.6027 115.895 13.6027C115.566 13.6027 115.281 13.6827 115.04 13.8423C115.001 13.8623 114.969 13.8873 114.944 13.9172H114.926C114.9 13.9372 114.875 13.9621 114.849 13.9921H114.831C114.805 14.022 114.787 14.047 114.773 14.067V14.082H114.754C114.729 14.1119 114.71 14.1369 114.697 14.1568C114.71 14.1469 114.71 14.1519 114.697 14.1718C114.672 14.2018 114.653 14.2268 114.64 14.2468L114.621 14.2917L114.602 14.3516L114.584 14.4112L114.564 14.4561C114.564 14.4661 114.559 14.486 114.545 14.516V14.5609V14.6658V16.4178C114.545 16.7172 114.678 16.9717 114.944 17.1813C115.211 17.381 115.528 17.4809 115.895 17.4809L116.143 17.4958C117.97 17.5458 119.523 18.0896 120.804 19.1277C122.071 20.1658 122.706 21.4087 122.706 22.8561C122.706 24.3333 122.046 25.5959 120.728 26.644C119.396 27.6921 117.785 28.2163 115.895 28.2163H109.086V23.9191H115.895C116.276 23.9191 116.599 23.8142 116.866 23.6046C117.132 23.395 117.265 23.1456 117.265 22.8561C117.265 22.5566 117.132 22.3019 116.866 22.0923C116.599 21.8827 116.276 21.778 115.895 21.778H115.63C113.816 21.7181 112.276 21.174 111.007 20.1458C109.739 19.1077 109.099 17.8702 109.086 16.4327V14.6508C109.099 13.1735 109.764 11.9159 111.083 10.8778C112.402 9.83971 114 9.31549 115.876 9.3055ZM124.132 9.73987H129.591V17.4809H130.371C130.752 17.4809 131.094 17.376 131.398 17.1663C131.703 16.9567 131.88 16.7072 131.931 16.4178L133.662 9.73987H139.121L137.39 16.4327C137.187 17.5407 136.604 18.5488 135.64 19.4572C136.832 20.4454 137.542 21.5734 137.771 22.8411L137.79 22.9459L138.741 28.2313H133.282L132.349 23.0505L132.312 22.856C132.261 22.5566 132.083 22.3019 131.779 22.0923C131.474 21.8826 131.138 21.778 130.771 21.778H129.591V28.2313H124.132V9.73987ZM100.26 13.5877C99.8793 13.5877 99.5561 13.6926 99.2898 13.9022C99.0234 14.1118 98.8906 14.3663 98.8906 14.6658V19.6219H101.61V14.6658C101.61 14.3663 101.477 14.1118 101.211 13.9022C100.945 13.6926 100.627 13.5877 100.26 13.5877ZM145.844 18.1569C146.722 18.1572 147.588 18.3154 148.376 18.6198C149.164 18.9242 149.855 19.3666 150.394 19.9134L149.377 20.4993C149.377 20.4993 149.377 20.5045 149.38 20.5122C148.958 20.0892 148.423 19.7477 147.812 19.5129C147.203 19.2782 146.534 19.1562 145.857 19.1561C145.266 19.1561 144.68 19.249 144.134 19.4295C143.587 19.61 143.091 19.8746 142.673 20.2082C142.256 20.5417 141.923 20.9377 141.697 21.3735C141.471 21.8094 141.355 22.2765 141.355 22.7482C141.355 23.2199 141.471 23.6871 141.697 24.1229C141.923 24.5588 142.256 24.9547 142.673 25.2883C143.091 25.6219 143.587 25.8864 144.134 26.0669C144.68 26.2475 145.266 26.3403 145.857 26.3403C147.038 26.3392 148.17 25.9683 149.011 25.3074C149.852 24.6464 150.334 23.7484 150.353 22.8066L151.537 22.0533C151.537 22.0533 151.54 22.0229 151.542 21.9919C151.593 22.2326 151.618 22.4761 151.618 22.72C151.618 23.9303 151.01 25.091 149.927 25.9467C148.844 26.8025 147.376 27.2832 145.844 27.2832C144.314 27.2832 142.845 26.8025 141.763 25.9467C140.68 25.091 140.072 23.9303 140.072 22.72C140.072 21.5099 140.68 20.3492 141.763 19.4934C142.845 18.6377 144.313 18.1569 145.844 18.1569ZM153.749 19.0477C153.921 19.0545 154.425 19.3973 154.391 19.7031C154.342 20.1463 153.088 20.5436 153.088 20.5436L151.825 21.1643L151.082 21.5644L149.915 22.3247L148.085 23.5867C148.085 23.5867 147.733 23.8756 147.316 24.2384C146.978 24.5317 146.606 24.8832 146.278 25.093C146.057 25.2337 145.797 25.2462 145.692 25.2617C145.483 25.2928 144.638 24.1971 144.366 23.979C144.166 23.8186 143.074 22.7778 143.096 22.5598C143.101 22.5108 143.142 22.2459 143.364 22.0914C143.621 21.9115 143.83 21.9243 143.986 21.9659C144.735 22.1673 145.916 23.6627 145.916 23.6627L148.321 21.8056C148.321 21.8056 150.037 20.6195 150.994 20.1365C151.86 19.6997 153.308 19.0303 153.749 19.0477Z" fill="#566573"/>
</g>
</g>
<defs>
<clipPath id="clip0_88_41">
<rect width="167" height="32" fill="white" transform="translate(0 0.5)"/>
</clipPath>
</defs>
</svg>
